<svg width="402" height="503" viewBox="0 0 402 503" fill="none" xmlns="http://www.w3.org/2000/svg">
<path d="M314.528 231.359C306.371 144.638 187.589 84.4019 96.4258 81.3474C-8.63069 77.8383 -51.6281 151.126 -130.491 124.642C-202.459 100.5 -203.417 27.085 -256.497 13.1016C-305.279 0.252931 -385.255 40.9653 -523.718 254.228" stroke="#F3F4F6" stroke-width="5" stroke-miterlimit="10"/>
<path d="M-518.037 264.217C-381.278 54.0508 -301.18 11.6305 -251.61 22.5482C-214.873 30.6903 -202.223 66.8947 -174.516 96.0075C-160.708 110.973 -143.399 122.274 -124.145 128.896C-61.0802 150.636 -21.0788 110.708 48.0452 95.9494C65.6667 92.1349 83.6753 90.4055 101.7 90.7968C193.299 92.4853 311.06 145.374 321.233 229.043" stroke="#F3F4F6" stroke-width="5" stroke-miterlimit="10"/>
<path d="M-512.338 274.177C-377.286 67.122 -297.11 23.0065 -246.857 32.0034C-209.916 38.62 -196.341 73.1679 -168.511 100.871C-154.332 115.337 -137.039 126.375 -117.948 133.142C-55.8188 155.152 -16.0208 119.358 53.3032 105.443C70.9222 101.87 88.8637 100.131 106.841 100.255C198.876 100.86 315.615 146.103 327.804 226.72" stroke="#F3F4F6" stroke-width="5" stroke-miterlimit="10"/>
<path d="M-506.654 284.107C-373.339 80.2059 -293.042 34.4121 -242.044 41.4463C-204.871 46.5685 -190.43 79.4274 -162.432 105.737C-147.915 119.696 -130.649 130.475 -111.736 137.388C-50.4834 159.672 -11.0219 127.989 58.5756 114.936C76.2018 111.566 94.0974 109.804 112.042 109.671C204.506 109.029 320.216 146.789 334.422 224.354" stroke="#F3F4F6" stroke-width="5" stroke-miterlimit="10"/>
<path d="M-500.972 294.111C-369.362 93.2764 -289.005 45.8314 -237.216 50.9049C-199.857 54.5455 -184.475 85.7189 -156.322 110.59C-141.456 124.048 -124.187 134.582 -105.42 141.64C-45.0438 164.196 -5.87488 136.643 64.0265 124.438C81.6226 121.31 99.4332 119.542 117.301 119.149C210.209 117.261 324.889 147.554 341.125 222.067" stroke="#F3F4F6" stroke-width="5" stroke-miterlimit="10"/>
<path d="M-495.349 304.083C-365.4 106.346 -284.857 55.8103 -232.389 60.3486C-194.935 63.5466 -178.516 91.9063 -150.243 115.457C-135.035 128.39 -117.763 138.678 -99.1489 145.89C-39.6491 168.719 -0.802459 145.293 69.2982 133.947C86.8792 131.022 104.63 129.234 122.441 128.592C215.796 125.399 329.444 148.268 347.696 219.745" stroke="#F3F4F6" stroke-width="5" stroke-miterlimit="10"/>
<path d="M-489.592 314.061C-361.423 119.432 -280.934 68.774 -227.572 69.7172C-189.892 70.5712 -172.53 98.1841 -144.149 120.339C-128.616 132.743 -111.34 142.789 -92.8778 150.154C-34.2544 173.256 4.31524 153.945 74.6299 143.458C92.1963 140.755 109.89 138.956 127.64 138.067C221.44 133.628 334.061 148.97 354.326 217.439" stroke="#F3F4F6" stroke-width="5" stroke-miterlimit="10"/>
<path d="M-483.91 324.035C-357.49 132.5 -276.91 80.1628 -222.748 79.2501C-184.909 78.5617 -166.509 104.33 -138.054 125.192C-122.209 137.055 -104.92 146.856 -86.6047 154.359C-28.8734 177.748 9.41792 162.582 79.9636 152.91C96.3774 150.678 113.886 148.616 132.842 147.469C227.103 141.739 338.674 149.717 360.957 215.104" stroke="#F3F4F6" stroke-width="5" stroke-miterlimit="10"/>
<path d="M-478.227 334.009C-353.484 145.587 -272.893 91.7151 -217.934 88.6634C-179.926 86.5671 -160.474 110.491 -131.929 130.031C-115.77 141.347 -98.4601 150.922 -80.2878 158.596C-23.433 182.258 14.5522 171.19 85.3403 162.408C101.82 160.359 119.283 158.324 138.102 156.917C232.689 149.906 343.288 150.449 367.589 212.769" stroke="#F3F4F6" stroke-width="5" stroke-miterlimit="10"/>
<path d="M-472.529 343.97C-349.506 158.657 -268.875 103.238 -213.108 98.1516C-174.947 94.6616 -154.365 116.685 -125.879 134.911C-109.429 145.673 -92.1004 155.026 -74.0771 162.872C-18.0838 186.808 19.6088 179.87 90.6293 171.873C107.101 170.002 124.579 167.968 143.26 166.316C238.4 157.959 347.907 151.092 374.223 210.375" stroke="#F3F4F6" stroke-width="5" stroke-miterlimit="10"/>
<path d="M-466.846 353.944C-345.544 171.727 -264.858 114.79 -208.324 107.593C-170.011 102.725 -148.358 122.815 -119.815 139.792C-103.076 149.977 -85.7152 159.105 -67.8352 167.121C-12.7333 191.329 24.6675 188.504 95.9283 181.443C112.465 179.783 129.899 177.732 148.427 175.85C244.016 166.142 352.474 151.896 380.835 208.128" stroke="#F3F4F6" stroke-width="5" stroke-miterlimit="10"/>
<path d="M-461.163 363.918C-341.567 184.812 -260.812 126.344 -203.467 117.038C-164.987 110.806 -142.247 128.934 -113.706 144.66C-97.2998 153.693 -80.4952 162.818 -61.5342 171.372C-7.30805 195.838 29.7994 197.157 101.29 190.94C117.862 189.476 135.267 187.409 153.686 185.298C249.724 174.241 357.148 152.616 387.51 205.81" stroke="#F3F4F6" stroke-width="5" stroke-miterlimit="10"/>
<path d="M-455.48 373.893C-337.593 197.942 -256.871 137.923 -198.654 126.496C-160.007 118.886 -136.134 135.024 -107.612 149.527C-90.7816 158.087 -73.9215 166.977 -55.2626 175.621C-1.91497 200.405 34.8878 205.793 106.622 200.437C123.23 199.183 140.62 197.1 158.857 194.743C255.33 182.304 361.734 153.332 394.111 203.489" stroke="#F3F4F6" stroke-width="5" stroke-miterlimit="10"/>
<path d="M-449.828 383.866C-333.628 210.967 -252.767 149.524 -193.842 135.954C-155.03 127.01 -130.02 141.1 -101.519 154.409C-84.2482 162.468 -67.3482 171.136 -49.0515 179.883C3.43659 204.896 39.915 214.456 111.953 209.963C128.611 208.89 145.958 206.79 164.056 204.218C260.98 190.37 366.349 154.049 400.742 201.168" stroke="#F3F4F6" stroke-width="5" stroke-miterlimit="10"/>
<path d="M-444.099 393.827C-329.65 224.038 -248.768 161.15 -189.013 145.398C-150.021 135.106 -123.889 147.131 -95.4378 159.261C-77.7268 166.804 -60.7585 175.281 -42.7192 184.12C8.86266 209.405 45.0789 223.081 117.286 219.445C134.704 218.387 152.056 216.438 169.274 213.605C266.617 198.42 371.008 154.798 407.374 198.833" stroke="#F3F4F6" stroke-width="5" stroke-miterlimit="10"/>
<path d="M-438.417 403.802C-325.674 237.123 -244.649 172.737 -184.245 154.839C-145.073 143.214 -117.803 153.145 -89.329 164.129C-71.1767 171.14 -54.1698 179.426 -36.4482 188.37C14.2721 213.928 50.181 231.732 122.588 228.94C139.98 228.106 157.301 226.154 174.442 223.094C272.257 206.381 375.578 155.513 414.022 196.454" stroke="#F3F4F6" stroke-width="5" stroke-miterlimit="10"/>
<path d="M-432.734 413.776C-321.712 250.193 -240.534 184.428 -179.373 164.284C-140.051 151.356 -111.625 159.134 -83.249 168.981C-64.6547 175.446 -47.6113 183.584 -30.1917 192.619C19.6372 218.449 55.269 240.368 127.949 238.438C145.317 237.809 162.609 235.838 179.672 232.541C277.878 214.445 380.192 156.245 420.649 194.194" stroke="#F3F4F6" stroke-width="5" stroke-miterlimit="10"/>
<path d="M-427.036 423.751C-317.737 263.338 -236.536 196.068 -174.56 173.742C-135.014 159.483 -105.491 165.091 -77.1688 173.847C-58.0716 179.74 -41.0364 187.728 -23.9196 196.868C25.0343 222.942 60.3573 249.019 133.282 247.949C150.622 247.516 167.888 245.526 184.872 242.002C283.502 222.45 384.808 156.962 427.281 191.874" stroke="#F3F4F6" stroke-width="5" stroke-miterlimit="10"/>
<path d="M-421.354 433.725C-313.832 276.345 -232.45 207.743 -169.735 183.245C-129.995 167.683 -99.3739 171.091 -71.079 178.804C-51.585 184.163 -34.4376 191.978 -17.6526 201.207C30.4235 227.583 65.4553 257.76 138.61 257.505C155.923 257.268 173.166 255.258 190.07 251.507C289.124 230.484 389.492 157.786 433.908 189.613" stroke="#F3F4F6" stroke-width="5" stroke-miterlimit="10"/>
<path d="M-415.671 443.7C-309.796 289.433 -228.35 219.419 -164.92 192.644C-124.956 175.766 -93.2501 176.943 -64.9806 183.582C-45.0392 188.276 -27.8749 196.047 -11.3784 205.397C35.8063 232.045 70.5463 266.337 143.944 266.972C161.229 266.938 178.452 264.908 195.271 260.923C294.737 238.384 394.037 158.411 440.541 187.233" stroke="#F3F4F6" stroke-width="5" stroke-miterlimit="10"/>
<path d="M-409.973 453.66C-305.818 302.504 -224.253 231.168 -160.151 202.085C-119.98 183.92 -87.2024 182.837 -58.9605 188.446C-38.5724 192.49 -21.36 200.189 -5.17912 209.599C41.1433 236.535 75.5907 274.956 149.218 276.436C166.478 276.59 183.687 274.541 200.428 270.337C300.237 246.16 398.592 159.14 447.143 184.897" stroke="#F3F4F6" stroke-width="5" stroke-miterlimit="10"/>
<path d="M-404.305 463.634C-238.063 223.342 -126.387 181.318 -52.8072 193.316C27.5154 206.411 54.9144 282.774 154.608 285.95C271.558 289.658 394.697 156.012 453.803 182.578" stroke="#F3F4F6" stroke-width="5" stroke-miterlimit="10"/>
</svg>
