<svg width="402" height="503" viewBox="0 0 402 503" fill="none" xmlns="http://www.w3.org/2000/svg">
<path d="M517.528 231.36C509.371 144.638 390.589 84.4021 299.426 81.3477C194.369 77.8385 151.372 151.126 72.509 124.643C0.540828 100.5 -0.416623 27.0853 -53.497 13.1019C-102.279 0.253175 -182.255 40.9656 -320.718 254.228" stroke="#F3F4F6" stroke-width="5" stroke-miterlimit="10"/>
<path d="M-315.037 264.217C-178.278 54.0508 -98.1802 11.6305 -48.6097 22.5482C-11.8729 30.6903 0.777117 66.8947 28.4835 96.0075C42.2924 110.973 59.6008 122.274 78.8547 128.896C141.92 150.636 181.921 110.708 251.045 95.9494C268.667 92.1349 286.675 90.4055 304.7 90.7968C396.299 92.4853 514.06 145.374 524.233 229.043" stroke="#F3F4F6" stroke-width="5" stroke-miterlimit="10"/>
<path d="M-309.338 274.177C-174.286 67.122 -94.1105 23.0065 -43.8565 32.0034C-6.91612 38.62 6.6586 73.1679 34.4889 100.871C48.6676 115.337 65.9615 126.375 85.052 133.142C147.181 155.152 186.979 119.358 256.303 105.443C273.922 101.87 291.864 100.131 309.841 100.255C401.876 100.86 518.615 146.103 530.804 226.72" stroke="#F3F4F6" stroke-width="5" stroke-miterlimit="10"/>
<path d="M-303.654 284.107C-170.339 80.2059 -90.0425 34.4121 -39.0436 41.4463C-1.87115 46.5685 12.5701 79.4274 40.5682 105.737C55.0852 119.696 72.3507 130.475 91.2639 137.388C152.517 159.672 191.978 127.989 261.576 114.936C279.202 111.566 297.097 109.804 315.042 109.671C407.506 109.029 523.216 146.789 537.422 224.354" stroke="#F3F4F6" stroke-width="5" stroke-miterlimit="10"/>
<path d="M-297.972 294.111C-166.362 93.2764 -86.0048 45.8314 -34.2163 50.9049C3.14284 54.5455 18.525 85.7189 46.678 110.59C61.544 124.048 78.8127 134.582 97.5799 141.64C157.956 164.196 197.125 136.643 267.027 124.438C284.623 121.31 302.433 119.542 320.301 119.149C413.209 117.261 527.889 147.554 544.125 222.067" stroke="#F3F4F6" stroke-width="5" stroke-miterlimit="10"/>
<path d="M-292.349 304.083C-162.4 106.346 -81.8569 55.8103 -29.3886 60.3486C8.06522 63.5466 24.4844 91.9063 52.7572 115.457C67.9655 128.39 85.2369 138.678 103.851 145.89C163.351 168.719 202.198 145.293 272.298 133.947C289.879 131.022 307.63 129.234 325.441 128.592C418.796 125.399 532.444 148.268 550.696 219.745" stroke="#F3F4F6" stroke-width="5" stroke-miterlimit="10"/>
<path d="M-286.592 314.061C-158.423 119.432 -77.934 68.774 -24.5718 69.7172C13.1081 70.5712 30.47 98.1841 58.8513 120.339C74.3843 132.743 91.6602 142.789 110.122 150.154C168.746 173.256 207.315 153.945 277.63 143.458C295.196 140.755 312.89 138.956 330.64 138.067C424.44 133.628 537.061 148.97 557.326 217.439" stroke="#F3F4F6" stroke-width="5" stroke-miterlimit="10"/>
<path d="M-280.91 324.035C-154.49 132.5 -73.9102 80.1628 -19.7483 79.2501C18.0913 78.5617 36.4907 104.33 64.9458 125.192C80.7912 137.055 98.0795 146.856 116.395 154.359C174.127 177.748 212.418 162.582 282.964 152.91C299.377 150.678 316.886 148.616 335.842 147.469C430.103 141.739 541.674 149.717 563.957 215.104" stroke="#F3F4F6" stroke-width="5" stroke-miterlimit="10"/>
<path d="M-275.227 334.009C-150.484 145.587 -69.8934 91.7151 -14.9338 88.6633C23.0743 86.5671 42.5262 110.491 71.0713 130.031C87.23 141.347 104.54 150.922 122.712 158.596C179.567 182.258 217.552 171.19 288.34 162.408C304.82 160.359 322.283 158.324 341.102 156.917C435.689 149.906 546.288 150.449 570.589 212.769" stroke="#F3F4F6" stroke-width="5" stroke-miterlimit="10"/>
<path d="M-269.529 343.97C-146.506 158.657 -65.8751 103.238 -10.1077 98.1516C28.0533 94.6616 48.6346 116.685 77.1205 134.911C93.5706 145.673 110.9 155.026 128.923 162.872C184.916 186.808 222.609 179.87 293.629 171.873C310.101 170.002 327.579 167.968 346.26 166.316C441.4 157.959 550.907 151.092 577.223 210.375" stroke="#F3F4F6" stroke-width="5" stroke-miterlimit="10"/>
<path d="M-263.846 353.944C-142.544 171.727 -61.8582 114.79 -5.3242 107.593C32.9891 102.725 54.6417 122.815 83.1845 139.792C99.9241 149.977 117.285 159.105 135.165 167.121C190.267 191.329 227.667 188.504 298.928 181.443C315.465 179.783 332.899 177.732 351.427 175.85C447.016 166.142 555.474 151.896 583.835 208.128" stroke="#F3F4F6" stroke-width="5" stroke-miterlimit="10"/>
<path d="M-258.163 363.918C-138.567 184.812 -57.8119 126.344 -0.466688 117.038C38.013 110.806 60.7532 128.934 89.2935 144.66C105.7 153.693 122.505 162.818 141.466 171.372C195.692 195.838 232.799 197.157 304.29 190.94C320.862 189.476 338.267 187.409 356.686 185.298C452.724 174.241 560.148 152.616 590.51 205.81" stroke="#F3F4F6" stroke-width="5" stroke-miterlimit="10"/>
<path d="M-252.48 373.893C-134.593 197.942 -53.8708 137.923 4.34581 126.496C42.9927 118.886 66.8664 135.024 95.388 149.527C112.218 158.087 129.078 166.977 147.737 175.621C201.085 200.405 237.888 205.793 309.622 200.437C326.23 199.183 343.62 197.1 361.857 194.743C458.33 182.304 564.734 153.332 597.111 203.489" stroke="#F3F4F6" stroke-width="5" stroke-miterlimit="10"/>
<path d="M-246.828 383.866C-130.628 210.967 -49.767 149.524 9.15804 135.954C47.97 127.01 72.9799 141.1 101.481 154.409C118.752 162.468 135.652 171.136 153.948 179.883C206.437 204.896 242.915 214.456 314.953 209.963C331.611 208.89 348.958 206.79 367.056 204.218C463.98 190.37 569.349 154.049 603.742 201.168" stroke="#F3F4F6" stroke-width="5" stroke-miterlimit="10"/>
<path d="M-241.099 393.827C-126.65 224.038 -45.7679 161.15 13.9866 145.398C52.9792 135.106 79.1111 147.131 107.562 159.261C125.273 166.804 142.242 175.281 160.281 184.12C211.863 209.405 248.079 223.081 320.286 219.445C337.704 218.387 355.056 216.438 372.274 213.605C469.617 198.42 574.008 154.798 610.374 198.833" stroke="#F3F4F6" stroke-width="5" stroke-miterlimit="10"/>
<path d="M-235.417 403.802C-122.674 237.123 -41.6488 172.737 18.7547 154.839C57.9273 143.214 85.1974 153.145 113.671 164.129C131.823 171.14 148.83 179.426 166.552 188.37C217.272 213.928 253.181 231.732 325.588 228.94C342.98 228.106 360.301 226.154 377.442 223.094C475.257 206.381 578.578 155.513 617.022 196.454" stroke="#F3F4F6" stroke-width="5" stroke-miterlimit="10"/>
<path d="M-229.734 413.776C-118.712 250.193 -37.5343 184.428 23.6271 164.284C62.9485 151.356 91.3746 159.134 119.751 168.981C138.345 175.446 155.389 183.584 172.808 192.619C222.637 218.449 258.269 240.368 330.949 238.438C348.317 237.809 365.609 235.838 382.672 232.541C480.878 214.445 583.192 156.245 623.649 194.194" stroke="#F3F4F6" stroke-width="5" stroke-miterlimit="10"/>
<path d="M-224.037 423.751C-114.738 263.338 -33.5362 196.068 28.4398 173.742C67.9857 159.483 97.5088 165.091 125.831 173.847C144.928 179.74 161.963 187.728 179.08 196.868C228.034 222.942 263.357 249.019 336.281 247.949C353.621 247.516 370.888 245.526 387.872 242.002C486.502 222.45 587.807 156.962 630.28 191.874" stroke="#F3F4F6" stroke-width="5" stroke-miterlimit="10"/>
<path d="M-218.354 433.725C-110.832 276.345 -29.4504 207.743 33.2652 183.245C73.0046 167.683 103.626 171.091 131.921 178.804C151.415 184.163 168.562 191.978 185.347 201.207C233.423 227.583 268.455 257.76 341.61 257.505C358.923 257.268 376.166 255.258 393.07 251.507C492.124 230.484 592.492 157.786 636.908 189.613" stroke="#F3F4F6" stroke-width="5" stroke-miterlimit="10"/>
<path d="M-212.672 443.7C-106.796 289.433 -25.3504 219.419 38.0798 192.644C78.0431 175.766 109.749 176.943 138.019 183.582C157.96 188.276 175.125 196.047 191.621 205.397C238.806 232.045 273.546 266.337 346.943 266.972C364.228 266.938 381.451 264.908 398.271 260.923C497.737 238.384 597.036 158.411 643.541 187.233" stroke="#F3F4F6" stroke-width="5" stroke-miterlimit="10"/>
<path d="M-206.973 453.66C-102.818 302.504 -21.2527 231.168 42.8489 202.085C83.0198 183.92 115.798 182.837 144.039 188.446C164.428 192.49 181.64 200.189 197.821 209.599C244.143 236.535 278.591 274.956 352.218 276.436C369.478 276.59 386.687 274.541 403.428 270.337C503.237 246.16 601.592 159.14 650.143 184.897" stroke="#F3F4F6" stroke-width="5" stroke-miterlimit="10"/>
<path d="M-201.306 463.634C-35.0636 223.342 76.6127 181.318 150.192 193.316C230.515 206.411 257.914 282.774 357.608 285.95C474.558 289.658 597.697 156.012 656.803 182.578" stroke="#F3F4F6" stroke-width="5" stroke-miterlimit="10"/>
</svg>
