<svg width="402" height="503" viewBox="0 0 402 503" fill="none" xmlns="http://www.w3.org/2000/svg">
<path d="M773.528 231.359C765.371 144.638 646.589 84.4019 555.426 81.3474C450.369 77.8383 407.372 151.126 328.509 124.642C256.541 100.5 255.583 27.085 202.503 13.1016C153.721 0.252931 73.7451 40.9653 -64.7184 254.228" stroke="#F3F4F6" stroke-width="5" stroke-miterlimit="10"/>
<path d="M-59.0365 264.217C77.7216 54.0508 157.82 11.6305 207.39 22.5482C244.127 30.6903 256.777 66.8947 284.484 96.0075C298.292 110.973 315.601 122.274 334.855 128.896C397.92 150.636 437.921 110.708 507.045 95.9494C524.667 92.1349 542.675 90.4055 560.7 90.7968C652.299 92.4853 770.06 145.374 780.233 229.043" stroke="#F3F4F6" stroke-width="5" stroke-miterlimit="10"/>
<path d="M-53.3381 274.177C81.714 67.122 161.89 23.0065 212.143 32.0034C249.084 38.62 262.659 73.1679 290.489 100.871C304.668 115.337 321.961 126.375 341.052 133.142C403.181 155.152 442.979 119.358 512.303 105.443C529.922 101.87 547.864 100.131 565.841 100.255C657.876 100.86 774.615 146.103 786.804 226.72" stroke="#F3F4F6" stroke-width="5" stroke-miterlimit="10"/>
<path d="M-47.6535 284.107C85.6608 80.2059 165.958 34.4121 216.956 41.4463C254.129 46.5685 268.57 79.4274 296.568 105.737C311.085 119.696 328.351 130.475 347.264 137.388C408.517 159.672 447.978 127.989 517.576 114.936C535.202 111.566 553.097 109.804 571.042 109.671C663.506 109.029 779.216 146.789 793.422 224.354" stroke="#F3F4F6" stroke-width="5" stroke-miterlimit="10"/>
<path d="M-41.9722 294.111C89.6381 93.2764 169.995 45.8314 221.784 50.9049C259.143 54.5455 274.525 85.7189 302.678 110.59C317.544 124.048 334.813 134.582 353.58 141.64C413.956 164.196 453.125 136.643 523.027 124.438C540.623 121.31 558.433 119.542 576.301 119.149C669.209 117.261 783.889 147.554 800.125 222.067" stroke="#F3F4F6" stroke-width="5" stroke-miterlimit="10"/>
<path d="M-36.3492 304.083C93.6003 106.346 174.143 55.8103 226.611 60.3486C264.065 63.5466 280.484 91.9063 308.757 115.457C323.965 128.39 341.237 138.678 359.851 145.89C419.351 168.719 458.198 145.293 528.298 133.947C545.879 131.022 563.63 129.234 581.441 128.592C674.796 125.399 788.444 148.268 806.696 219.745" stroke="#F3F4F6" stroke-width="5" stroke-miterlimit="10"/>
<path d="M-30.5919 314.061C97.5773 119.432 178.066 68.774 231.428 69.7172C269.108 70.5712 286.47 98.1841 314.851 120.339C330.384 132.743 347.66 142.789 366.122 150.154C424.746 173.256 463.315 153.945 533.63 143.458C551.196 140.755 568.89 138.956 586.64 138.067C680.44 133.628 793.061 148.97 813.326 217.439" stroke="#F3F4F6" stroke-width="5" stroke-miterlimit="10"/>
<path d="M-24.9097 324.035C101.51 132.5 182.09 80.1628 236.252 79.2501C274.091 78.5617 292.491 104.33 320.946 125.192C336.791 137.055 354.08 146.856 372.395 154.359C430.127 177.748 468.418 162.582 538.964 152.91C555.377 150.678 572.886 148.616 591.842 147.469C686.103 141.739 797.674 149.717 819.957 215.104" stroke="#F3F4F6" stroke-width="5" stroke-miterlimit="10"/>
<path d="M-19.2269 334.009C105.516 145.587 186.107 91.7151 241.066 88.6634C279.074 86.5671 298.526 110.491 327.071 130.031C343.23 141.347 360.54 150.922 378.712 158.596C435.567 182.258 473.552 171.19 544.34 162.408C560.82 160.359 578.283 158.324 597.102 156.917C691.689 149.906 802.288 150.449 826.589 212.769" stroke="#F3F4F6" stroke-width="5" stroke-miterlimit="10"/>
<path d="M-13.5285 343.97C109.494 158.657 190.125 103.238 245.892 98.1516C284.053 94.6616 304.635 116.685 333.121 134.911C349.571 145.673 366.9 155.026 384.923 162.872C440.916 186.808 478.609 179.87 549.629 171.873C566.101 170.002 583.579 167.968 602.26 166.316C697.4 157.959 806.907 151.092 833.223 210.375" stroke="#F3F4F6" stroke-width="5" stroke-miterlimit="10"/>
<path d="M-7.84571 353.944C113.456 171.727 194.142 114.79 250.676 107.593C288.989 102.725 310.642 122.815 339.185 139.792C355.924 149.977 373.285 159.105 391.165 167.121C446.267 191.329 483.667 188.504 554.928 181.443C571.465 179.783 588.899 177.732 607.427 175.85C703.016 166.142 811.474 151.896 839.835 208.128" stroke="#F3F4F6" stroke-width="5" stroke-miterlimit="10"/>
<path d="M-2.16323 363.918C117.433 184.812 198.188 126.344 255.533 117.038C294.013 110.806 316.753 128.934 345.294 144.66C361.7 153.693 378.505 162.818 397.466 171.372C451.692 195.838 488.799 197.157 560.29 190.94C576.862 189.476 594.267 187.409 612.686 185.298C708.724 174.241 816.148 152.616 846.51 205.81" stroke="#F3F4F6" stroke-width="5" stroke-miterlimit="10"/>
<path d="M3.51957 373.893C121.407 197.942 202.129 137.923 260.346 126.496C298.993 118.886 322.866 135.024 351.388 149.527C368.218 158.087 385.078 166.977 403.737 175.621C457.085 200.405 493.888 205.793 565.622 200.437C582.23 199.183 599.62 197.1 617.857 194.743C714.33 182.304 820.734 153.332 853.111 203.489" stroke="#F3F4F6" stroke-width="5" stroke-miterlimit="10"/>
<path d="M9.17229 383.866C125.372 210.967 206.233 149.524 265.158 135.954C303.97 127.01 328.98 141.1 357.481 154.409C374.752 162.468 391.652 171.136 409.948 179.883C462.437 204.896 498.915 214.456 570.953 209.963C587.611 208.89 604.958 206.79 623.056 204.218C719.98 190.37 825.349 154.049 859.742 201.168" stroke="#F3F4F6" stroke-width="5" stroke-miterlimit="10"/>
<path d="M14.9009 393.827C129.35 224.038 210.232 161.15 269.987 145.398C308.979 135.106 335.111 147.131 363.562 159.261C381.273 166.804 398.242 175.281 416.281 184.12C467.863 209.405 504.079 223.081 576.286 219.445C593.704 218.387 611.056 216.438 628.274 213.605C725.617 198.42 830.008 154.798 866.374 198.833" stroke="#F3F4F6" stroke-width="5" stroke-miterlimit="10"/>
<path d="M20.5832 403.802C133.326 237.123 214.351 172.737 274.755 154.839C313.927 143.214 341.197 153.145 369.671 164.129C387.823 171.14 404.83 179.426 422.552 188.37C473.272 213.928 509.181 231.732 581.588 228.94C598.98 228.106 616.301 226.154 633.442 223.094C731.257 206.381 834.578 155.513 873.022 196.454" stroke="#F3F4F6" stroke-width="5" stroke-miterlimit="10"/>
<path d="M26.2657 413.776C137.288 250.193 218.466 184.428 279.627 164.284C318.949 151.356 347.375 159.134 375.751 168.981C394.345 175.446 411.389 183.584 428.808 192.619C478.637 218.449 514.269 240.368 586.949 238.438C604.317 237.809 621.609 235.838 638.672 232.541C736.878 214.445 839.192 156.245 879.649 194.194" stroke="#F3F4F6" stroke-width="5" stroke-miterlimit="10"/>
<path d="M31.9639 423.751C141.263 263.338 222.464 196.068 284.44 173.742C323.986 159.483 353.509 165.091 381.831 173.847C400.928 179.74 417.964 187.728 435.08 196.868C484.034 222.942 519.357 249.019 592.282 247.949C609.622 247.516 626.888 245.526 643.872 242.002C742.502 222.45 843.808 156.962 886.281 191.874" stroke="#F3F4F6" stroke-width="5" stroke-miterlimit="10"/>
<path d="M37.6463 433.725C145.168 276.345 226.55 207.743 289.265 183.245C329.005 167.683 359.626 171.091 387.921 178.804C407.415 184.163 424.562 191.978 441.347 201.207C489.423 227.583 524.455 257.76 597.61 257.505C614.923 257.268 632.166 255.258 649.07 251.507C748.124 230.484 848.492 157.786 892.908 189.613" stroke="#F3F4F6" stroke-width="5" stroke-miterlimit="10"/>
<path d="M43.329 443.7C149.204 289.433 230.65 219.419 294.08 192.644C334.044 175.766 365.75 176.943 394.019 183.582C413.961 188.276 431.125 196.047 447.622 205.397C494.806 232.045 529.546 266.337 602.944 266.972C620.229 266.938 637.452 264.908 654.271 260.923C753.737 238.384 853.037 158.411 899.541 187.233" stroke="#F3F4F6" stroke-width="5" stroke-miterlimit="10"/>
<path d="M49.0272 453.66C153.182 302.504 234.747 231.168 298.849 202.085C339.02 183.92 371.798 182.837 400.039 188.446C420.428 192.49 437.64 200.189 453.821 209.599C500.143 236.535 534.591 274.956 608.218 276.436C625.478 276.59 642.687 274.541 659.428 270.337C759.237 246.16 857.592 159.14 906.143 184.897" stroke="#F3F4F6" stroke-width="5" stroke-miterlimit="10"/>
<path d="M54.6946 463.634C220.937 223.342 332.613 181.318 406.193 193.316C486.515 206.411 513.914 282.774 613.608 285.95C730.558 289.658 853.697 156.012 912.803 182.578" stroke="#F3F4F6" stroke-width="5" stroke-miterlimit="10"/>
</svg>
